# AST/ASF file generated using VICON BodyLanguage
# -----------------------------------------------
:version 1.10
:name VICON
:units
  mass 1.0
  length 0.45
  angle deg
:documentation
   .ast/.asf automatically generated from VICON data using
   VICON BodyBuilder and BodyLanguage model FoxedUp or BRILLIANT.MOD
:root
   order TX TY TZ RX RY RZ
   axis XYZ
   position 0 0 0  
   orientation 0 0 0 
:bonedata
  begin
     id 1 
     name lhipjoint
     direction 0.661853 -0.702389 0.261917 
     length 2.64193 
     axis 0 0 0  XYZ
  end
  begin
     id 2 
     name lfemur
     direction 0.34202 -0.939693 0  
     length 7.01722  
     axis 0 0 20  XYZ
    dof rx ry rz
    limits (-160.0 20.0)
           (-70.0 70.0)
           (-60.0 70.0)
  end
  begin
     id 3 
     name ltibia
     direction 0.34202 -0.939693 0   
     length 8.25008   
     axis 0 0 20   XYZ
    dof rx
    limits (-10.0 170.0)
  end
  begin
     id 4 
     name lfoot
     direction 0.0709916 -0.195048 0.978221   
     length 2.31941   
     axis -90 7.62852e-016 20   XYZ
    dof rx rz
    limits (-45.0 90.0)
           (-70.0 20.0)
  end
  begin
     id 5 
     name ltoes
     direction 1.53586e-011 -4.22017e-011 1   
     length 1.16486   
     axis -90 7.62852e-016 20   XYZ
    dof rx
    limits (-90.0 20.0)
  end
  begin
     id 6 
     name rhipjoint
     direction -0.638185 -0.721362 0.268992   
     length 2.57244  
     axis 0 0 0  XYZ 
  end
  begin
     id 7 
     name rfemur
     direction -0.34202 -0.939693 0   
     length 7.07017   
     axis 0 0 -20   XYZ
    dof rx ry rz
    limits (-160.0 20.0)
           (-70.0 70.0)
           (-70.0 60.0)
  end
  begin
     id 8 
     name rtibia
     direction -0.34202 -0.939693 0   
     length 8.20386   
     axis 0 0 -20   XYZ
    dof rx
    limits (-10.0 170.0)
 end
 begin
     id 9 
     name rfoot
     direction -0.0822429 -0.225961 0.970658   
     length 2.32215  
     axis -90 -7.62852e-016 -20   XYZ
    dof rx rz
    limits (-45.0 90.0)
           (-20.0 70.0)
  end
  begin
     id 10 
     name rtoes
     direction -1.53597e-011 -4.21689e-011 1   
     length 1.16333   
     axis -90 -7.62852e-016 -20   XYZ
    dof rx
    limits (-90.0 20.0)
  end
  begin
     id 11 
     name lowerback
     direction -0.0131557 0.998589 -0.0514484   
     length 2.14993   
     axis 0 0 0   XYZ
    dof rx ry rz
    limits (-20.0 45.0)
           (-30.0 30.0)
           (-30.0 30.0)
  end
  begin
     id 12 
     name upperback
     direction -0.000776481 0.999993 0.00352685   
     length 2.15301   
     axis 0 0 0   XYZ
    dof rx ry rz
    limits (-20.0 45.0)
           (-30.0 30.0)
           (-30.0 30.0)
  end
  begin
     id 13 
     name thorax
     direction 0.00438186 0.999609 0.0276143   
     length 2.15424   
     axis 0 0 0   XYZ
    dof rx ry rz
    limits (-20.0 45.0)
           (-30.0 30.0)
           (-30.0 30.0)
  end
  begin
     id 14 
     name lowerneck
     direction -0.0488006 0.998094 0.0377807   
     length 1.90481   
     axis 0 0 0   XYZ
    dof rx ry rz
    limits (-20.0 45.0)
           (-30.0 30.0)
           (-30.0 30.0)
  end
  begin
     id 15 
     name upperneck
     direction 0.0443769 0.990702 -0.12861   
     length 1.91305   
     axis 0 0 0   XYZ
    dof rx ry rz
    limits (-20.0 45.0)
           (-30.0 30.0)
           (-30.0 30.0)
  end
  begin
     id 16
     name head
     direction 0.0165599 0.998647 -0.0492982  
     length 1.92369  
     axis 0 0 0   XYZ
    dof rx ry rz
    limits (-20.0 45.0)
           (-30.0 30.0)
           (-30.0 30.0)
  end
  begin
     id 17 
     name lclavicle
     direction 0.911936 0.410197 -0.0105506  
     length 3.52622  
     axis 0 0 0   XYZ
    dof ry rz
    limits (-20.0 10.0)
           (0.0 20.0)
  end
  begin
     id 18 
     name lhumerus
     direction 1 -4.48974e-011 -2.48591e-028   
     length 5.47651   
     axis 180 -30 -90   XYZ
    dof rx ry rz
    limits (-60.0 90.0)
           (-90.0 90.0)
           (-90.0 90.0)
  end
  begin
     id 19
     name lradius
     direction 1 -4.48938e-011 -4.40099e-027   
     length 3.09058   
     axis 180 -30 -90   XYZ
    dof rx
    limits (-10.0 170.0)
  end
  begin
     id 20
     name lwrist
     direction 1 -4.49042e-011 -2.99852e-027   
     length 1.54529   
     axis 1.95339e-015 90 90   XYZ
    dof ry
    limits (-180.0 0.0)
 end
  begin
     id 21 
     name lhand
     direction 1 -4.48815e-011 -5.98193e-027   
     length 0.771611   
     axis 3.82337e-015 90 90   XYZ
    dof rx rz
    limits (-90.0 90.0)
           (-45.0 45.0)
  end
  begin
     id 22 
     name lfingers
     direction 1 -4.49034e-011 -1.1993e-026   
     length 0.622093   
     axis 7.64668e-015 90 90   XYZ
    dof rx
    limits (0.0 90.0)
  end
  begin
     id 23
     name lthumb
     direction 0.707107 -6.34867e-011 0.707107   
     length 0.893204   
     axis -90 45 -1.62303e-014   XYZ
    dof rx rz
    limits (-45.0 45.0)
           (-45.0 45.0)
  end
  begin
     id 24 
     name rclavicle
     direction -0.93442 0.355634 -0.0195692   
     length 3.62463  
     axis 0 0 0   XYZ 
    dof ry rz
    limits (-10.0 20.0)
           (-20.0 0.0)
  end
  begin
     id 25 
     name rhumerus
     direction -1 -4.48957e-011 -1.19147e-027  
     length 5.14182   
     axis 180 30 90   XYZ
    dof rx ry rz
    limits (-90.0 60.0)
           (-90.0 90.0)
           (-90.0 90.0)
  end
  begin
     id 26 
     name rradius
     direction -1 -4.48952e-011 -3.81062e-027   
     length 3.35565   
     axis 180 30 90   XYZ
    dof rx
    limits (-10.0 170.0)
  end
  begin
     id 27 
     name rwrist
     direction -1 -4.48973e-011 -2.99621e-027   
     length 1.67782   
     axis 1.95339e-015 -90 -90   XYZ
    dof ry
    limits (-180.0 0.0)
  end
  begin
     id 28
     name rhand
     direction -1 -4.48895e-011 -5.98727e-027   
     length 0.801042   
     axis 3.82337e-015 -90 -90   XYZ
    dof rx rz
    limits (-90.0 90.0)
           (-45.0 45.0)
  end
  begin
     id 29
     name rfingers
     direction -1 -4.49065e-011 -1.19972e-026   
     length 0.645821   
     axis 7.64668e-015 -90 -90   XYZ
    dof rx
    limits (0.0 90.0)
  end
  begin
     id 30
     name rthumb
     direction -0.707107 -6.34957e-011 0.707107   
     length 0.927273   
     axis -90 -45 1.62303e-014   XYZ
    dof rx rz
    limits (-45.0 45.0)
           (-45.0 45.0)
  end
:hierarchy
  begin
    root lhipjoint rhipjoint lowerback
    lhipjoint lfemur
    lfemur ltibia
    ltibia lfoot
    lfoot ltoes
    rhipjoint rfemur
    rfemur rtibia
    rtibia rfoot
    rfoot rtoes
    lowerback upperback
    upperback thorax
    thorax lowerneck lclavicle rclavicle
    lowerneck upperneck
    upperneck head
    lclavicle lhumerus
    lhumerus lradius
    lradius lwrist
    lwrist lhand lthumb
    lhand lfingers
    rclavicle rhumerus
    rhumerus rradius
    rradius rwrist
    rwrist rhand rthumb
    rhand rfingers
  end

#!OML:ASF E:\Style4\Style4.ASF
:FULLY-SPECIFIED
:DEGREES
139
root -0.847454 17.8394 -0.713134 0.465451 5.31123 4.75312
lowerback 6.77095 5.70252 2.59791
upperback 6.9943 7.74613 -1.2557
thorax 4.02223 4.04587 -2.94683
lowerneck 4.38426 -8.87175 -4.52768
upperneck 0.978355 -12.005 4.86759
head 0.169092 -6.0442 2.36898
rclavicle -3.33958e-014 5.56597e-015
rhumerus 36.2595 4.8291 9.54018
rradius 67.8721
rwrist -53.5026
rhand 3.90223 9.9595
rfingers 7.12502
rthumb 29.3224 -17.7484
lclavicle -3.33958e-014 5.56597e-015
lhumerus -29.1649 -36.3639 34.5108
lradius 114.235
lwrist 39.9415
lhand -0.815366 31.079
lfingers 7.12502
lthumb 24.8092 59.4896
rfemur -12.9781 -5.17166 17.1108
rtibia 33.2565
rfoot -19.5856 -18.7711
rtoes -7.95752
lfemur -9.84314 -1.72523 -19.9511
ltibia 23.7592
lfoot -13.7164 7.57311
ltoes -19.9871
140
root -0.856443 17.8418 -0.715441 0.494169 5.29476 4.78574
lowerback 6.6783 5.67915 2.67047
upperback 6.94627 7.71333 -1.16667
thorax 4.01696 4.02866 -2.88727
lowerneck 4.41398 -8.88535 -4.54841
upperneck 0.984126 -12.0244 4.61669
head 0.151657 -6.05228 2.29391
rclavicle -9.38264e-014 3.4191e-014
rhumerus 36.4414 4.98335 9.62408
rradius 67.8333
rwrist -53.5378
rhand 3.94982 9.88577
rfingers 7.12502
rthumb 29.3678 -17.8141
lclavicle -9.38264e-014 3.4191e-014
lhumerus -26.6741 -35.5211 31.1024
lradius 114.943
lwrist 40.5494
lhand -0.760647 31.0444
lfingers 7.12502
lthumb 24.8616 59.4478
rfemur -12.9641 -5.05811 17.1143
rtibia 33.203
rfoot -19.6922 -18.762
rtoes -7.16093
lfemur -9.81443 -1.73667 -19.9566
ltibia 23.627
lfoot -13.5336 7.64913
ltoes -20.0538
141
root -0.864203 17.8452 -0.715672 0.512822 5.34249 4.95232
lowerback 6.61656 5.65514 2.62631
upperback 6.92922 7.67661 -1.09779
thorax 4.01376 4.0056 -2.78687
lowerneck 4.2466 -8.9308 -4.63667
upperneck 1.15408 -12.086 4.36344
head 0.225202 -6.07978 2.21266
rclavicle -8.22969e-014 1.59028e-015
rhumerus 36.5589 5.14714 9.67618
rradius 67.7813
rwrist -53.4687
rhand 3.90053 9.88343
rfingers 7.12502
rthumb 29.3207 -17.8247
lclavicle -8.22969e-014 1.59028e-015
lhumerus -24.1014 -34.4958 27.7568
lradius 115.471
lwrist 41.0514
lhand -0.172758 30.9059
lfingers 7.12502
lthumb 25.4249 59.2303
rfemur -12.9235 -5.07164 16.9535
rtibia 33.1646
rfoot -19.7236 -18.7379
rtoes -7.03005
lfemur -9.74894 -1.77359 -20.1192
ltibia 23.4804
lfoot -13.3952 7.6501
ltoes -20.1288
142
root -0.869844 17.85 -0.714548 0.49298 5.38155 5.11902
lowerback 6.59778 5.62923 2.57431
upperback 6.88996 7.63737 -1.02074
thorax 3.96095 3.97986 -2.68022
lowerneck 4.13705 -8.96198 -4.70063
upperneck 1.3243 -12.1282 4.09962
head 0.285673 -6.09839 2.12775
rclavicle 6.81831e-014 -9.54166e-015
rhumerus 36.5919 5.37059 9.7681
rradius 67.858
rwrist -53.446
rhand 3.70518 9.88174
rfingers 7.12502
rthumb 29.1342 -17.8589
lclavicle 6.81831e-014 -9.54166e-015
lhumerus -21.57 -33.367 24.4717
lradius 115.935
lwrist 41.5284
lhand 0.646295 30.9132
lfingers 7.12502
lthumb 26.2093 59.1236
rfemur -12.8272 -5.10212 16.7694
rtibia 33.0986
rfoot -19.7729 -18.6586
rtoes -7.00909
lfemur -9.6185 -1.8216 -20.2863
ltibia 23.3305
lfoot -13.3532 7.59912
ltoes -19.8334
143
root -0.875429 17.8543 -0.714669 0.449962 5.37228 5.15351
lowerback 6.56954 5.61117 2.67962
upperback 6.86034 7.61427 -0.936863
thorax 3.94592 3.96966 -2.64981
lowerneck 4.15649 -8.98032 -4.72504
upperneck 1.3164 -12.153 3.88235
head 0.268111 -6.10976 2.06437
rclavicle -1.35174e-014 1.27222e-014
rhumerus 36.4864 5.54263 9.74821
rradius 68.0432
rwrist -53.4228
rhand 3.62078 9.84853
rfingers 7.12502
rthumb 29.0536 -17.906
lclavicle -1.35174e-014 1.27222e-014
lhumerus -19.0841 -32.1741 21.2527
lradius 116.279
lwrist 41.8608
lhand 1.20001 30.8091
lfingers 7.12502
lthumb 26.7393 58.9396
rfemur -12.7103 -5.03605 16.7431
rtibia 32.9821
rfoot -19.8139 -18.639
rtoes -6.88442
lfemur -9.4846 -1.85144 -20.3117
ltibia 23.1928
lfoot -13.3258 7.61672
ltoes -19.4474
144
root -0.882831 17.8588 -0.717268 0.376623 5.3388 5.05487
lowerback 6.56186 5.57527 2.87656
upperback 6.8272 7.56952 -0.800169
thorax 3.91929 3.95079 -2.61708
lowerneck 4.25909 -8.97168 -4.73798
upperneck 1.24314 -12.1436 3.62905
head 0.21143 -6.10413 1.99505
rclavicle 0 3.18055e-015
rhumerus 36.5284 5.7074 9.63154
rradius 68.1119
rwrist -53.3704
rhand 3.6904 9.92688
rfingers 7.12502
rthumb 29.1201 -17.8162
lclavicle 0 3.18055e-015
lhumerus -16.8205 -30.9243 18.2698
lradius 116.477
lwrist 42.1036
lhand 1.1401 30.6299
lfingers 7.12502
lthumb 26.6819 58.7691
rfemur -12.579 -4.93769 16.8845
rtibia 32.8137
rfoot -19.6581 -18.7886
rtoes -7.29957
lfemur -9.36656 -1.83418 -20.1784
ltibia 23.1004
lfoot -13.2537 7.63353
ltoes -19.4375
145
root -0.890751 17.8634 -0.720816 0.339927 5.35124 5.01858
lowerback 6.55956 5.53505 2.98685
upperback 6.75241 7.51688 -0.692744
thorax 3.83726 3.9236 -2.57096
lowerneck 4.35882 -8.97336 -4.69553
upperneck 1.24228 -12.1466 3.38347
head 0.175757 -6.10437 1.91682
rclavicle 1.25234e-014 1.03368e-014
rhumerus 36.6768 5.99149 9.41464
rradius 67.9747
rwrist -53.2055
rhand 3.76108 10.1707
rfingers 7.12502
rthumb 29.1876 -17.5606
lclavicle 1.25234e-014 1.03368e-014
lhumerus -14.5887 -29.6357 15.3899
lradius 116.575
lwrist 42.1024
lhand 0.940262 30.5719
lfingers 7.12502
lthumb 26.4907 58.7402
rfemur -12.4604 -4.85536 16.9525
rtibia 32.6328
rfoot -19.4601 -18.9593
rtoes -8.04781
lfemur -9.31888 -1.84471 -20.1133
ltibia 23.0479
lfoot -13.1338 7.73109
ltoes -19.92
146
root -0.898259 17.8683 -0.725489 0.345529 5.35901 5.01578
lowerback 6.54635 5.51079 3.07676
upperback 6.65893 7.4855 -0.615171
thorax 3.74466 3.90653 -2.54469
lowerneck 4.44181 -8.99059 -4.61272
upperneck 1.31297 -12.1683 3.14031
head 0.163871 -6.11382 1.82974
rclavicle -9.52179e-014 -1.11319e-014
rhumerus 36.6098 6.35653 9.12942
rradius 67.9647
rwrist -52.8373
rhand 3.42595 10.2296
rfingers 7.12502
rthumb 28.8675 -17.5569
lclavicle -9.52179e-014 -1.11319e-014
lhumerus -12.3469 -28.2501 12.579
lradius 116.523
lwrist 41.7352
lhand 1.28124 30.5316
lfingers 7.12502
lthumb 26.817 58.6502
rfemur -12.3928 -4.72359 16.99
rtibia 32.4582
rfoot -19.1784 -19.2162
rtoes -9.04098
lfemur -9.34317 -1.83551 -20.0767
ltibia 23.0269
lfoot -13.0981 7.7756
ltoes -20.2282
